<?xml version="1.0" encoding="UTF-8"?>
<svg version="1.1" xmlns="http://www.w3.org/2000/svg" width="47" height="44">
<path d="M0 0 C5.07358794 0.77009817 8.00162466 2.90121538 11.5 6.53125 C12.16 7.19125 12.82 7.85125 13.5 8.53125 C14.05585298 15.71023261 14.09555229 23.48422738 12.5 30.53125 C8.2635965 34.58502451 3.98905392 34.01215234 -1.5625 33.96875 C-2.47322266 33.98873047 -3.38394531 34.00871094 -4.32226562 34.02929688 C-5.63420898 34.02833008 -5.63420898 34.02833008 -6.97265625 34.02734375 C-7.76937744 34.02919678 -8.56609863 34.0310498 -9.38696289 34.03295898 C-11.5 33.53125 -11.5 33.53125 -13.25585938 31.85766602 C-15.69162684 27.3030294 -14.9688857 22.08149368 -14.9375 17.03125 C-14.95748047 15.89042969 -14.97746094 14.74960937 -14.99804688 13.57421875 C-14.99708008 11.92873047 -14.99708008 11.92873047 -14.99609375 10.25 C-14.99794678 9.24904297 -14.9997998 8.24808594 -15.00170898 7.21679688 C-13.50408118 -0.79970232 -6.68025592 -0.1670064 0 0 Z M-10.5 4.53125 C-10.5 13.11125 -10.5 21.69125 -10.5 30.53125 C-4.23 30.53125 2.04 30.53125 8.5 30.53125 C9.50496852 26.51137591 9.43017724 23.8665527 9.0625 19.78125 C8.96066406 18.61078125 8.85882813 17.4403125 8.75390625 16.234375 C8.62822266 14.89632813 8.62822266 14.89632813 8.5 13.53125 C7.38625 13.345625 6.2725 13.16 5.125 12.96875 C3.330625 12.2571875 3.330625 12.2571875 1.5 11.53125 C0.0625 7.90625 0.0625 7.90625 -0.5 4.53125 C-3.8 4.53125 -7.1 4.53125 -10.5 4.53125 Z M4.5 6.53125 C4.83 7.52125 5.16 8.51125 5.5 9.53125 C5.5 8.54125 5.5 7.55125 5.5 6.53125 C5.17 6.53125 4.84 6.53125 4.5 6.53125 Z " fill="#615FD4" transform="translate(25.5,5.46875)"/>
<path d="M0 0 C13.62717982 -1.03352206 13.62717982 -1.03352206 18.75 2.875 C19.86708988 3.8803809 20.95710142 4.91785255 22 6 C22.66 6.66 23.32 7.32 24 8 C24.56809387 15.3370768 24.16151074 22.74055787 23 30 C22.67 30 22.34 30 22 30 C21.505 25.05 21.505 25.05 21 20 C20.67 21.98 20.34 23.96 20 26 C19.67 26 19.34 26 19 26 C19 21.71 19 17.42 19 13 C17.02 13 15.04 13 13 13 C10.4345406 10.4345406 10.45953913 8.52313332 10 5 C6.7 4.67 3.4 4.34 0 4 C0 3.67 0 3.34 0 3 C3.63 3 7.26 3 11 3 C11 2.34 11 1.68 11 1 C7.37 1 3.74 1 0 1 C0 0.67 0 0.34 0 0 Z M15 6 C15.33 6.99 15.66 7.98 16 9 C16 8.01 16 7.02 16 6 C15.67 6 15.34 6 15 6 Z " fill="#7D7BE8" transform="translate(15,6)"/>
<path d="M0 0 C2.90073719 1.30033047 5.08227501 2.43578982 7 5 C7.328125 8.07421875 7.328125 8.07421875 7.25 11.6875 C7.22421875 12.93144531 7.1984375 14.17539062 7.171875 15.45703125 C6.98230451 19.36476831 6.61778228 23.13886078 6 27 C5.67 27 5.34 27 5 27 C4.67 23.7 4.34 20.4 4 17 C3.67 18.98 3.34 20.96 3 23 C2.67 23 2.34 23 2 23 C2 18.71 2 14.42 2 10 C0.02 10 -1.96 10 -4 10 C-4.33 9.34 -4.66 8.68 -5 8 C-2.69 8.33 -0.38 8.66 2 9 C1.51515724 4.35413108 1.51515724 4.35413108 0 0 Z " fill="#9998EB" transform="translate(32,9)"/>
<path d="M0 0 C0.33 0 0.66 0 1 0 C1.76094303 4.28030452 2.13555542 8.463606 2.25 12.8125 C2.27578125 13.74707031 2.3015625 14.68164062 2.328125 15.64453125 C2.21984375 16.42183594 2.1115625 17.19914062 2 18 C-1.20406462 20.13604308 -1.99600747 20.24208908 -5.66796875 20.1953125 C-6.56064453 20.18886719 -7.45332031 20.18242188 -8.37304688 20.17578125 C-9.76620117 20.15064453 -9.76620117 20.15064453 -11.1875 20.125 C-12.12787109 20.11597656 -13.06824219 20.10695313 -14.03710938 20.09765625 C-16.35832968 20.07409056 -18.67903644 20.04119116 -21 20 C-20.505 18.515 -20.505 18.515 -20 17 C-13.73 16.67 -7.46 16.34 -1 16 C-0.67 10.72 -0.34 5.44 0 0 Z " fill="#4948C7" transform="translate(35,19)"/>
<path d="M0 0 C4.62 0 9.24 0 14 0 C14 1.32 14 2.64 14 4 C9.38 4 4.76 4 0 4 C0 2.68 0 1.36 0 0 Z " fill="#7876DC" transform="translate(18,28)"/>
<path d="M0 0 C0.89203125 0.00902344 1.7840625 0.01804687 2.703125 0.02734375 C3.37859375 0.03894531 4.0540625 0.05054687 4.75 0.0625 C4.75 1.3825 4.75 2.7025 4.75 4.0625 C-5.80808656 4.24701025 -5.80808656 4.24701025 -10.25 3.0625 C-9.25 1.0625 -9.25 1.0625 -7.515625 0.44140625 C-4.96855716 0.01543111 -2.58143831 -0.03396629 0 0 Z " fill="#7271D6" transform="translate(27.25,21.9375)"/>
<path d="M0 0 C0.33 1.32 0.66 2.64 1 4 C2.65 4.33 4.3 4.66 6 5 C6 5.66 6 6.32 6 7 C3.69 6.67 1.38 6.34 -1 6 C-0.67 4.02 -0.34 2.04 0 0 Z " fill="#4743C6" transform="translate(28,11)"/>
<path d="M0 0 C0.33 0.99 0.66 1.98 1 3 C-2 4 -2 4 -5 3 C-5 2.34 -5 1.68 -5 1 C-2 0 -2 0 0 0 Z " fill="#6D6DC3" transform="translate(23,16)"/>
</svg>
